<mxfile host="app.diagrams.net" modified="2023-09-08T15:06:32.223Z" agent="Mozilla/5.0 (Windows NT 10.0; Win64; x64) AppleWebKit/537.36 (KHTML, like Gecko) Chrome/116.0.0.0 Safari/537.36" etag="Z6mHBKr5N9YjGXMxUBRZ" version="21.7.1" type="device">
  <diagram name="Página-1" id="PQqE0pA_I894NBdlLSzu">
    <mxGraphModel dx="1050" dy="579" grid="1" gridSize="10" guides="1" tooltips="1" connect="1" arrows="1" fold="1" page="1" pageScale="1" pageWidth="827" pageHeight="1169" math="0" shadow="0">
      <root>
        <mxCell id="0" />
        <mxCell id="1" parent="0" />
        <mxCell id="4i71f490kVw-QVZZBh9L-11" style="edgeStyle=orthogonalEdgeStyle;rounded=0;orthogonalLoop=1;jettySize=auto;html=1;dashed=1;endArrow=open;endFill=0;exitX=0.631;exitY=1.012;exitDx=0;exitDy=0;exitPerimeter=0;" edge="1" parent="1" source="4i71f490kVw-QVZZBh9L-3" target="4i71f490kVw-QVZZBh9L-10">
          <mxGeometry relative="1" as="geometry">
            <Array as="points">
              <mxPoint x="450" y="483" />
            </Array>
          </mxGeometry>
        </mxCell>
        <mxCell id="4i71f490kVw-QVZZBh9L-3" value="" style="shape=folder;fontStyle=1;tabWidth=80;tabHeight=30;tabPosition=left;html=1;boundedLbl=1;whiteSpace=wrap;" vertex="1" parent="1">
          <mxGeometry x="210" y="270" width="180" height="210" as="geometry" />
        </mxCell>
        <mxCell id="4i71f490kVw-QVZZBh9L-4" value="Cadastro" style="text;html=1;align=center;verticalAlign=middle;resizable=0;points=[];autosize=1;strokeColor=none;fillColor=none;" vertex="1" parent="1">
          <mxGeometry x="265" y="300" width="70" height="30" as="geometry" />
        </mxCell>
        <mxCell id="4i71f490kVw-QVZZBh9L-7" value="" style="edgeStyle=orthogonalEdgeStyle;rounded=0;orthogonalLoop=1;jettySize=auto;html=1;entryX=0.5;entryY=0.268;entryDx=0;entryDy=0;entryPerimeter=0;endArrow=open;endFill=0;" edge="1" parent="1" source="4i71f490kVw-QVZZBh9L-5" target="4i71f490kVw-QVZZBh9L-6">
          <mxGeometry relative="1" as="geometry" />
        </mxCell>
        <mxCell id="4i71f490kVw-QVZZBh9L-5" value="Interface de cadastro" style="shape=folder;fontStyle=1;spacingTop=10;tabWidth=40;tabHeight=14;tabPosition=left;html=1;whiteSpace=wrap;" vertex="1" parent="1">
          <mxGeometry x="250" y="330" width="100" height="50" as="geometry" />
        </mxCell>
        <mxCell id="4i71f490kVw-QVZZBh9L-6" value="Lógica de cadastro" style="shape=folder;fontStyle=1;spacingTop=10;tabWidth=40;tabHeight=14;tabPosition=left;html=1;whiteSpace=wrap;" vertex="1" parent="1">
          <mxGeometry x="250" y="400" width="100" height="50" as="geometry" />
        </mxCell>
        <mxCell id="4i71f490kVw-QVZZBh9L-9" value="" style="shape=folder;fontStyle=1;tabWidth=80;tabHeight=30;tabPosition=left;html=1;boundedLbl=1;whiteSpace=wrap;" vertex="1" parent="1">
          <mxGeometry x="260" y="600" width="380" height="130" as="geometry" />
        </mxCell>
        <mxCell id="4i71f490kVw-QVZZBh9L-10" value="Dados" style="text;html=1;align=center;verticalAlign=middle;resizable=0;points=[];autosize=1;strokeColor=none;fillColor=none;strokeWidth=1;fontSize=17;" vertex="1" parent="1">
          <mxGeometry x="415" y="630" width="70" height="30" as="geometry" />
        </mxCell>
        <mxCell id="4i71f490kVw-QVZZBh9L-20" style="edgeStyle=orthogonalEdgeStyle;rounded=0;orthogonalLoop=1;jettySize=auto;html=1;entryX=0.972;entryY=0.229;entryDx=0;entryDy=0;entryPerimeter=0;dashed=1;" edge="1" parent="1" source="4i71f490kVw-QVZZBh9L-12" target="4i71f490kVw-QVZZBh9L-9">
          <mxGeometry relative="1" as="geometry">
            <Array as="points">
              <mxPoint x="640" y="630" />
            </Array>
          </mxGeometry>
        </mxCell>
        <mxCell id="4i71f490kVw-QVZZBh9L-12" value="" style="shape=folder;fontStyle=1;tabWidth=80;tabHeight=30;tabPosition=left;html=1;boundedLbl=1;whiteSpace=wrap;" vertex="1" parent="1">
          <mxGeometry x="550" y="80" width="180" height="330" as="geometry" />
        </mxCell>
        <mxCell id="4i71f490kVw-QVZZBh9L-13" value="Usuários individuais" style="text;html=1;align=center;verticalAlign=middle;resizable=0;points=[];autosize=1;strokeColor=none;fillColor=none;" vertex="1" parent="1">
          <mxGeometry x="575" y="110" width="130" height="30" as="geometry" />
        </mxCell>
        <mxCell id="4i71f490kVw-QVZZBh9L-21" style="edgeStyle=orthogonalEdgeStyle;rounded=0;orthogonalLoop=1;jettySize=auto;html=1;exitX=0;exitY=0;exitDx=0;exitDy=210;exitPerimeter=0;entryX=1.007;entryY=0.352;entryDx=0;entryDy=0;entryPerimeter=0;dashed=1;" edge="1" parent="1" source="4i71f490kVw-QVZZBh9L-14" target="4i71f490kVw-QVZZBh9L-9">
          <mxGeometry relative="1" as="geometry">
            <Array as="points">
              <mxPoint x="827" y="600" />
              <mxPoint x="643" y="600" />
            </Array>
          </mxGeometry>
        </mxCell>
        <mxCell id="4i71f490kVw-QVZZBh9L-14" value="" style="shape=folder;fontStyle=1;tabWidth=80;tabHeight=30;tabPosition=left;html=1;boundedLbl=1;whiteSpace=wrap;" vertex="1" parent="1">
          <mxGeometry x="827" y="300" width="180" height="210" as="geometry" />
        </mxCell>
        <mxCell id="4i71f490kVw-QVZZBh9L-15" value="Aluguel" style="text;html=1;align=center;verticalAlign=middle;resizable=0;points=[];autosize=1;strokeColor=none;fillColor=none;" vertex="1" parent="1">
          <mxGeometry x="887" y="330" width="60" height="30" as="geometry" />
        </mxCell>
        <mxCell id="4i71f490kVw-QVZZBh9L-22" style="edgeStyle=orthogonalEdgeStyle;rounded=0;orthogonalLoop=1;jettySize=auto;html=1;entryX=1.007;entryY=0.746;entryDx=0;entryDy=0;entryPerimeter=0;dashed=1;" edge="1" parent="1" source="4i71f490kVw-QVZZBh9L-16" target="4i71f490kVw-QVZZBh9L-9">
          <mxGeometry relative="1" as="geometry" />
        </mxCell>
        <mxCell id="4i71f490kVw-QVZZBh9L-16" value="" style="shape=folder;fontStyle=1;tabWidth=80;tabHeight=30;tabPosition=left;html=1;boundedLbl=1;whiteSpace=wrap;" vertex="1" parent="1">
          <mxGeometry x="827" y="580" width="180" height="300" as="geometry" />
        </mxCell>
        <mxCell id="4i71f490kVw-QVZZBh9L-17" value="Agentes" style="text;html=1;align=center;verticalAlign=middle;resizable=0;points=[];autosize=1;strokeColor=none;fillColor=none;" vertex="1" parent="1">
          <mxGeometry x="882" y="608" width="70" height="30" as="geometry" />
        </mxCell>
        <mxCell id="4i71f490kVw-QVZZBh9L-18" value="" style="shape=folder;fontStyle=1;tabWidth=80;tabHeight=30;tabPosition=left;html=1;boundedLbl=1;whiteSpace=wrap;" vertex="1" parent="1">
          <mxGeometry x="440" y="830" width="180" height="210" as="geometry" />
        </mxCell>
        <mxCell id="4i71f490kVw-QVZZBh9L-23" style="edgeStyle=orthogonalEdgeStyle;rounded=0;orthogonalLoop=1;jettySize=auto;html=1;entryX=0.921;entryY=1;entryDx=0;entryDy=0;entryPerimeter=0;dashed=1;" edge="1" parent="1" source="4i71f490kVw-QVZZBh9L-19" target="4i71f490kVw-QVZZBh9L-9">
          <mxGeometry relative="1" as="geometry" />
        </mxCell>
        <mxCell id="4i71f490kVw-QVZZBh9L-19" value="Veículos" style="text;html=1;align=center;verticalAlign=middle;resizable=0;points=[];autosize=1;strokeColor=none;fillColor=none;" vertex="1" parent="1">
          <mxGeometry x="495" y="860" width="70" height="30" as="geometry" />
        </mxCell>
        <mxCell id="4i71f490kVw-QVZZBh9L-26" style="edgeStyle=orthogonalEdgeStyle;rounded=0;orthogonalLoop=1;jettySize=auto;html=1;entryX=0.453;entryY=0.043;entryDx=0;entryDy=0;entryPerimeter=0;endArrow=open;endFill=0;" edge="1" parent="1" source="4i71f490kVw-QVZZBh9L-24" target="4i71f490kVw-QVZZBh9L-25">
          <mxGeometry relative="1" as="geometry" />
        </mxCell>
        <mxCell id="4i71f490kVw-QVZZBh9L-24" value="Interface de usuários" style="shape=folder;fontStyle=1;tabWidth=80;tabHeight=30;tabPosition=left;html=1;boundedLbl=1;whiteSpace=wrap;" vertex="1" parent="1">
          <mxGeometry x="585" y="150" width="110" height="60" as="geometry" />
        </mxCell>
        <mxCell id="4i71f490kVw-QVZZBh9L-37" style="edgeStyle=orthogonalEdgeStyle;rounded=0;orthogonalLoop=1;jettySize=auto;html=1;" edge="1" parent="1" source="4i71f490kVw-QVZZBh9L-25" target="4i71f490kVw-QVZZBh9L-36">
          <mxGeometry relative="1" as="geometry" />
        </mxCell>
        <mxCell id="4i71f490kVw-QVZZBh9L-25" value="Lógica de usuários" style="shape=folder;fontStyle=1;tabWidth=80;tabHeight=30;tabPosition=left;html=1;boundedLbl=1;whiteSpace=wrap;" vertex="1" parent="1">
          <mxGeometry x="585" y="250" width="110" height="60" as="geometry" />
        </mxCell>
        <mxCell id="4i71f490kVw-QVZZBh9L-29" style="edgeStyle=orthogonalEdgeStyle;rounded=0;orthogonalLoop=1;jettySize=auto;html=1;endArrow=open;endFill=0;" edge="1" parent="1" source="4i71f490kVw-QVZZBh9L-27" target="4i71f490kVw-QVZZBh9L-28">
          <mxGeometry relative="1" as="geometry" />
        </mxCell>
        <mxCell id="4i71f490kVw-QVZZBh9L-27" value="Interface de aluguel" style="shape=folder;fontStyle=1;tabWidth=80;tabHeight=30;tabPosition=left;html=1;boundedLbl=1;whiteSpace=wrap;" vertex="1" parent="1">
          <mxGeometry x="862" y="360" width="110" height="60" as="geometry" />
        </mxCell>
        <mxCell id="4i71f490kVw-QVZZBh9L-28" value="Lógica de aluguel" style="shape=folder;fontStyle=1;tabWidth=80;tabHeight=30;tabPosition=left;html=1;boundedLbl=1;whiteSpace=wrap;" vertex="1" parent="1">
          <mxGeometry x="862" y="440" width="110" height="60" as="geometry" />
        </mxCell>
        <mxCell id="4i71f490kVw-QVZZBh9L-32" style="edgeStyle=orthogonalEdgeStyle;rounded=0;orthogonalLoop=1;jettySize=auto;html=1;endArrow=open;endFill=0;" edge="1" parent="1" source="4i71f490kVw-QVZZBh9L-30" target="4i71f490kVw-QVZZBh9L-31">
          <mxGeometry relative="1" as="geometry" />
        </mxCell>
        <mxCell id="4i71f490kVw-QVZZBh9L-30" value="Interface de agentes" style="shape=folder;fontStyle=1;tabWidth=80;tabHeight=30;tabPosition=left;html=1;boundedLbl=1;whiteSpace=wrap;" vertex="1" parent="1">
          <mxGeometry x="862" y="638" width="110" height="60" as="geometry" />
        </mxCell>
        <mxCell id="4i71f490kVw-QVZZBh9L-39" style="edgeStyle=orthogonalEdgeStyle;rounded=0;orthogonalLoop=1;jettySize=auto;html=1;entryX=0.502;entryY=-0.003;entryDx=0;entryDy=0;entryPerimeter=0;" edge="1" parent="1" source="4i71f490kVw-QVZZBh9L-31" target="4i71f490kVw-QVZZBh9L-38">
          <mxGeometry relative="1" as="geometry" />
        </mxCell>
        <mxCell id="4i71f490kVw-QVZZBh9L-31" value="Lógica de agentes" style="shape=folder;fontStyle=1;tabWidth=80;tabHeight=30;tabPosition=left;html=1;boundedLbl=1;whiteSpace=wrap;" vertex="1" parent="1">
          <mxGeometry x="862" y="720" width="110" height="60" as="geometry" />
        </mxCell>
        <mxCell id="4i71f490kVw-QVZZBh9L-35" style="edgeStyle=orthogonalEdgeStyle;rounded=0;orthogonalLoop=1;jettySize=auto;html=1;entryX=0.493;entryY=-0.003;entryDx=0;entryDy=0;entryPerimeter=0;endArrow=open;endFill=0;" edge="1" parent="1" source="4i71f490kVw-QVZZBh9L-33" target="4i71f490kVw-QVZZBh9L-34">
          <mxGeometry relative="1" as="geometry" />
        </mxCell>
        <mxCell id="4i71f490kVw-QVZZBh9L-33" value="Interface de veículos" style="shape=folder;fontStyle=1;tabWidth=80;tabHeight=30;tabPosition=left;html=1;boundedLbl=1;whiteSpace=wrap;" vertex="1" parent="1">
          <mxGeometry x="475" y="890" width="110" height="60" as="geometry" />
        </mxCell>
        <mxCell id="4i71f490kVw-QVZZBh9L-34" value="&lt;font style=&quot;font-size: 11px;&quot;&gt;Lógica de interação com aluguel&lt;/font&gt;" style="shape=folder;fontStyle=1;tabWidth=80;tabHeight=30;tabPosition=left;html=1;boundedLbl=1;whiteSpace=wrap;" vertex="1" parent="1">
          <mxGeometry x="475" y="970" width="110" height="60" as="geometry" />
        </mxCell>
        <mxCell id="4i71f490kVw-QVZZBh9L-36" value="&lt;font style=&quot;font-size: 11px;&quot;&gt;Lógica de interação com aluguel&lt;/font&gt;" style="shape=folder;fontStyle=1;tabWidth=80;tabHeight=30;tabPosition=left;html=1;boundedLbl=1;whiteSpace=wrap;" vertex="1" parent="1">
          <mxGeometry x="585" y="340" width="110" height="60" as="geometry" />
        </mxCell>
        <mxCell id="4i71f490kVw-QVZZBh9L-38" value="&lt;font style=&quot;font-size: 11px;&quot;&gt;Lógica de modificar e avaliar pedidos&lt;/font&gt;" style="shape=folder;fontStyle=1;tabWidth=80;tabHeight=30;tabPosition=left;html=1;boundedLbl=1;whiteSpace=wrap;" vertex="1" parent="1">
          <mxGeometry x="862" y="810" width="110" height="60" as="geometry" />
        </mxCell>
      </root>
    </mxGraphModel>
  </diagram>
</mxfile>
